<svg height="83" viewBox="0 0 466 83" width="464" xmlns="http://www.w3.org/2000/svg">
  <defs>
    <linearGradient gradientTransform="scale(.17177 .17184)" gradientUnits="userSpaceOnUse" id="a" x1="228.5" x2="228.5" y1="0"
                    y2="472.759">
      <stop offset="0" style="stop-color:#4ea2f1;stop-opacity:1"/>
      <stop offset=".5" style="stop-color:#2c7ac5;stop-opacity:1"/>
      <stop offset="1" style="stop-color:#1e6cb7;stop-opacity:1"/>
    </linearGradient>
    <linearGradient gradientTransform="scale(.17177 .17184)" gradientUnits="userSpaceOnUse" id="b" x1="229.524" x2="229.524" y1="43.353"
                    y2="426.921">
      <stop offset="0" style="stop-color:#fff;stop-opacity:1"/>
      <stop offset="1" style="stop-color:#70b1f0;stop-opacity:1"/>
    </linearGradient>
    <clipPath id="c">
      <path d="M244 24h221.96v42H244Zm0 0"/>
    </clipPath>
  </defs>
  <path
    d="M97.004 25.09c-10.547 0-16.79 6.164-16.79 15.637 0 9.472 6.243 15.636 16.79 15.636 10.812 0 16.965-6.164 16.965-15.636 0-9.473-6.153-15.637-16.965-15.637m0 23.117c-6.156 0-7.738-1.445-7.738-7.48s1.582-7.477 7.738-7.477c6.152 0 7.918 1.441 7.918 7.477 0 6.035-1.766 7.48-7.918 7.48m46.203.09c-1.129-2.313-2.129-3.809-5.25-4.625v-.45c5.793-.722 8.191-3.581 8.191-8.382 0-5.942-4.207-9.293-12.218-9.293h-17.692V55.91h8.508V45.57h3.484c3.301 0 4.208.633 5.293 2.899l3.622 7.433h9.82Zm-9.371-9.067h-9.09v-6.027h9.094c2.488 0 3.394.59 3.394 2.992 0 2.582-.906 3.035-3.394 3.035Zm14.476-13.687V55.91h8.508V25.543Zm27.563-.453c-10.547 0-16.79 6.164-16.79 15.637 0 9.472 6.243 15.636 16.79 15.636 10.809 0 16.965-6.164 16.965-15.636 0-9.473-6.145-15.637-16.961-15.637Zm0 23.117c-6.156 0-7.738-1.445-7.738-7.48s1.582-7.477 7.738-7.477c6.152 0 7.918 1.441 7.918 7.477 0 6.035-1.758 7.48-7.914 7.48Zm41.316-22.664v11.734l.407 6.618h-.586l-4.438-6.98-8.414-11.376h-9.05V55.91h8.507V44.035l-.363-5.8h.59l3.847 5.98 8.957 11.695h9.051V25.543Zm0 0"
    style="stroke:none;fill-rule:nonzero;fill:#f2f2f2;fill-opacity:1"/>
  <path
    d="M78.297 53.668q-.013-.012-.02-.023a9 9 0 0 0-.441-.504c-1.496-1.606-3.074-4.137-3.746-6.02-.594-1.66-1.25-5.21-1.246-6.766 0-1.582.816-5.257 1.554-7.027.754-1.812 2.594-4.59 3.793-5.73.102-.098.204-.2.293-.305A42 42 0 0 0 77 23.668c-.281.262-.621.61-.988.996l-.024.027a37 37 0 0 0-2.484 2.918 7 7 0 0 0-.215.293 24.4 24.4 0 0 0-3.227 6.985c-.996 3.718-.82 9.133.415 12.828 1.144 3.43 4.32 8.12 6.582 9.742a39 39 0 0 0 1.437-3.531 3 3 0 0 0-.2-.258m-5.227 9.453a24.6 24.6 0 0 1-3.043-2.934c-1.855-2.078-3.601-4.566-4.675-6.75a32 32 0 0 1-.82-1.828 29 29 0 0 1-1.587-5.214c-.03-.168-.062-.32-.093-.48-.028-.161-.067-.364-.094-.548-.028-.18-.051-.32-.074-.48a15 15 0 0 1-.082-.575q-.03-.284-.067-.57-.02-.205-.039-.402c-.726-7.36 1.406-14.715 5.965-20.598l.133-.168q.345-.44.715-.875c1.062-1.238 3.304-3.406 4.199-4.074a44 44 0 0 0-2.168-2.828c-.582.476-1.48 1.281-2.43 2.187-.101.098-.203.2-.305.297q-.098.1-.203.2a34 34 0 0 0-3.582 4.164c-.078.105-.156.207-.226.316a1 1 0 0 0-.074.105q-.125.171-.243.348c-.078.121-.156.234-.234.352-.082.12-.152.23-.227.347-.07.117-.152.239-.23.36l-.266.433q-.195.334-.39.672l-.235.422c-.172.32-.343.637-.515.96-.078.169-.157.321-.235.481a33 33 0 0 0-2.593 7.79 31.6 31.6 0 0 0-.368 10.464 32.9 32.9 0 0 0 2.692 9.36 35.6 35.6 0 0 0 2.883 5.136c.171.262.41.57.687.91a60 60 0 0 0 4.973 5.329c.437.414.832.761 1.136 1q1.169-1.394 2.196-2.883c-.14-.133-.305-.29-.48-.426M41.594 0a27 27 0 0 0-1.274 1.668 5.7 5.7 0 0 1-.941 1.09.24.24 0 0 1-.129.062c-.14 0-.91-.879-1.715-1.937-.265-.352-.476-.64-.656-.88q-2.109.125-4.152.442c.949 1.29 2.87 3.785 4.406 5.735 1.187 1.515 2.14 2.691 2.226 2.722s.313-.199.586-.55c.098-.13.203-.27.301-.426.277-.414.621-.906 1-1.442 1.371-1.902 3.215-4.308 4.2-5.437.179-.203.343-.402.495-.586A42 42 0 0 0 41.594 0m1.984 77.895-.125-.172-.867-1.114c-.36-.468-.668-.863-.934-1.199-.02-.027-.043-.055-.058-.078a81 81 0 0 0-1.371-1.727c-.25-.304-.47-.566-.743-.894l-.19-.215-.33-.387-.67.954-.356.503c-.329.465-.63.891-.914 1.286l-.45.632c-.148.207-.297.403-.43.594l-.011.012a69 69 0 0 1-1.516 2.035l-.203.258-.012.012a20 20 0 0 1-1.199 1.418c-.344.378-.613.687-.816.937 1.437.234 2.887.398 4.34.484.312-.336.675-.8 1.152-1.433.129-.168.258-.336.379-.489.46-.582.832-1 .898-1.007.063-.012.395.36.836.894q.142.17.301.364c.008.003.012.011.016.015.133.172.277.352.422.54.324.413.644.804.921 1.12a42 42 0 0 0 4.13-.43c-.497-.687-1.294-1.75-2.2-2.913M53.676 2.449l-.688.696c-2.945 3.007-5.773 6.742-8.082 10.597a54 54 0 0 0-1.87 3.375q-.043.082-.079.156c-.125.247-.246.485-.367.73-.383.794-.742 1.59-1.07 2.372-.29.691-.633 1.285-.77 1.32-.055.016-.156-.047-.371-.265l-.02-.02c-.511-.527-1.613-1.91-4.129-5.148l-.375-.48-.05-.067-2.164-2.805a396 396 0 0 1-1.82-2.363c-3.75-4.863-5.5-7.207-6.548-8.223q-1.69.594-3.312 1.328c1.098 1.493 3.832 5.032 8.664 11.227l.133.168c.465.594.918 1.176 1.347 1.726a274 274 0 0 1 2.649 3.454l.078.105c.547.75 1.977 2.582 3.426 4.418.402.504.812 1.027 1.203 1.512 1.39 1.746 2.555 3.18 2.621 3.207.012 0 .031-.02.059-.078.21-.36.804-1.985 1.449-3.938v-.015c.21-.645.437-1.282.672-1.915.172-.48.363-.96.558-1.433.035-.086.07-.168.106-.262a51 51 0 0 1 1.656-3.613 48.8 48.8 0 0 1 9.633-13.168l.094-.094c.367-.36.703-.707.964-.996a40 40 0 0 0-3.597-1.508m1.43 73.242-.02-.023a634 634 0 0 0-4.34-5.617l-.293-.38-2.992-3.847-1.977-2.547-.222-.289c-1.867-2.41-3.41-4.406-4.657-6.02l-.917-1.198q-.49-.632-.895-1.168c-.027-.036-.059-.07-.082-.106-.05-.07-.106-.137-.156-.203a83 83 0 0 0-1.59-2.008c-.352-.426-.586-.683-.625-.683-.043-.004-.098.136-.2.386-.261.63-.73 1.95-1.226 3.473-.055.156-.105.32-.16.477a52 52 0 0 1-2.14 5.382c-.118.254-.239.504-.36.758-.34.719-.707 1.43-1.09 2.125a51 51 0 0 1-2.227 3.738 51 51 0 0 1-4.914 6.309c-.007.008-.015.02-.023.023q-.563.615-1.148 1.22a73 73 0 0 0-1.649 1.741 41 41 0 0 0 3.45 1.461l.956-.968a46 46 0 0 0 3.653-4.098q.024-.023.043-.05a60 60 0 0 0 2.668-3.704 88 88 0 0 0 1.605-2.477c.078-.125.172-.27.262-.433q.1-.181.219-.387a.4.4 0 0 0 .03-.066c.946-1.723 2.345-4.649 2.927-6.168a4.8 4.8 0 0 1 .464-.969c.067-.098.125-.148.172-.133.172.14.328.305.461.485q.062.07.13.152c.327.394.796.965 1.413 1.746.172.21.34.438.54.684a638 638 0 0 1 3.675 4.707c.121.152.238.304.36.46q.138.184.289.372 1.096 1.416 2.398 3.097c.102.133.207.266.305.395 3.632 4.71 5.207 6.742 5.925 7.637a41 41 0 0 0 3.391-1.344 70 70 0 0 0-1.434-1.942M19.32 36.481c-.066-.7-.156-1.329-.261-1.86a29 29 0 0 0-.688-2.746 36 36 0 0 0-1.348-3.762c-2.164-5.117-5.535-9.75-9.46-12.824-.168-.129-.31-.242-.442-.336a43 43 0 0 0-2.14 2.813l.066.058s.012.012.016.02l.503.465a62 62 0 0 1 2.489 2.421l.011.012a24.4 24.4 0 0 1 4.278 5.856c.515.953.972 1.882 1.37 2.804.31.711.579 1.414.813 2.121.953 2.836 1.371 5.707 1.371 9.04 0 1.68-.171 4.035-.382 5.214-.63 3.532-2.25 7.535-4.332 10.754-.2.313-.41.625-.625.922-.215.3-.512.676-.856 1.09q-.01.012-.02.023c-1.292 1.543-3.296 3.614-4.456 4.567a5 5 0 0 0-.305.258 39 39 0 0 0 2.125 2.812 25 25 0 0 0 3.137-2.762 33.1 33.1 0 0 0 5.918-8.332c.082-.168.171-.328.242-.492a33.8 33.8 0 0 0 2.71-8.074c.493-2.43.575-6.902.266-10.063M7.156 31.808a21.1 21.1 0 0 0-2.82-4.844 27 27 0 0 0-2.86-3.055 39 39 0 0 0-1.46 3.637l.605.644c.934.977 1.965 2.551 2.793 4.164a17.8 17.8 0 0 1 1.352 3.375c1.18 4.52.527 9.547-1.614 13.622l-.039.07a16.7 16.7 0 0 1-2.492 3.531c-.223.254-.433.488-.621.703a40 40 0 0 0 1.445 3.614l.075-.067a28 28 0 0 0 3.18-3.531c4.616-6.29 5.417-14.793 2.456-21.863m0 0"
    style="stroke:none;fill-rule:evenodd;fill:url(#a)"/>
  <path
    d="M66.836 71.04A41 41 0 0 1 64 73.3c-1.523-1.331-5.297-5.163-6.238-6.402-5.664-7.46-5.985-7.886-20.387-26.464a4856 4856 0 0 1-7.285-9.418c-.563-.774-.625-.38-.23 1.468.206.985.421 3.805.5 6.618.12 4.3.07 5.273-.403 7.96-1.371 7.825-4.566 14.864-9.215 20.336-1.898 2.239-5.187 5.446-6.07 5.965a43 43 0 0 1-2.66-2.097c.468-.508 1.43-1.461 2.531-2.524 9.297-9.015 13.68-21.195 12.039-33.437-1.25-9.332-5.203-17.051-12.207-23.825l-1.926-1.867a43 43 0 0 1 2.828-2.164c1.79 1.453 5.414 5.465 8.461 9.469 2 2.629 5.18 6.762 7.067 9.187 1.89 2.426 5.05 6.508 7.03 9.067 1.981 2.562 5.18 6.695 7.114 9.187a681 681 0 0 1 3.867 5.012c.602.828.66.238.192-1.867-.375-1.656-.457-3.055-.438-7.43.016-5.047.067-5.605.782-8.82a41.5 41.5 0 0 1 4.097-11.125c2.418-4.555 5.93-9.016 9.547-12.129l.488-.43a42 42 0 0 1 2.864 2.211l-.227.2c-7.14 6.18-11.598 13.828-13.484 23.12-.813 4.004-.813 10.188 0 14.2 1.828 9.027 6.316 16.86 12.93 22.566.488.426.956.856 1.269 1.172m0 0"
    style="stroke:none;fill-rule:evenodd;fill:url(#b)"/>
  <g clip-path="url(#c)">
    <path
      d="m248.68 25.305-.024 30.62-3.707-.003.024-30.621Zm10.465 16.812-.012 13.817-3.528-.004.02-22.965 3.41.004-.004 3.59h.297a6.6 6.6 0 0 1 2.453-2.809c1.098-.719 2.512-1.074 4.246-1.074q2.332 0 4.078.96 1.752.945 2.72 2.872.971 1.916.964 4.847l-.012 14.59-3.523-.004.012-14.351c0-1.805-.465-3.211-1.403-4.219q-1.4-1.523-3.855-1.527-1.69-.001-3.016.73-1.32.733-2.082 2.137-.764 1.404-.765 3.406m31.082-9.12-.004 2.987-11.895-.007.004-2.993Zm-8.426-5.509h3.527l-.02 21.89q0 1.494.434 2.243.447.731 1.133.988.702.24 1.48.239c.391 0 .707-.02.957-.059.25-.047.45-.09.598-.117l.715 3.168q-.358.135-1.004.27-.64.147-1.625.148c-1 0-1.973-.215-2.93-.645a5.84 5.84 0 0 1-2.359-1.96q-.926-1.319-.926-3.321Zm23.086 28.965c-2.211-.004-4.117-.492-5.723-1.473-1.594-.988-2.82-2.363-3.687-4.128q-1.284-2.663-1.278-6.192c0-2.351.434-4.426 1.29-6.219.87-1.8 2.077-3.207 3.62-4.21q2.332-1.525 5.442-1.52 1.793 0 3.539.598c1.168.402 2.226 1.05 3.183 1.949.957.887 1.715 2.062 2.282 3.531q.854 2.199.847 5.41v1.496l-17.695-.015.004-3.051 14.11.012q0-1.94-.778-3.47a5.85 5.85 0 0 0-2.18-2.405q-1.4-.886-3.316-.887-2.109 0-3.645 1.043a6.87 6.87 0 0 0-2.351 2.691 7.9 7.9 0 0 0-.824 3.555v2.035q-.006 2.6.89 4.41.911 1.795 2.524 2.739c1.074.617 2.328.93 3.75.93.925 0 1.765-.13 2.511-.387a5.3 5.3 0 0 0 1.957-1.196q.825-.803 1.274-2l3.406.961a7.6 7.6 0 0 1-1.809 3.047c-.851.867-1.894 1.543-3.14 2.031q-1.874.715-4.203.715m18.426-31.082-.028 30.617-3.527-.004.027-30.617Zm9.984.008-.024 30.617h-3.53l.027-30.621Zm6.433 30.625.02-22.965 3.527.004-.02 22.965Zm1.817-26.79a2.53 2.53 0 0 1-1.777-.706q-.732-.703-.73-1.688 0-.989.733-1.691.746-.699 1.778-.7a2.46 2.46 0 0 1 1.765.704q.744.702.743 1.691 0 .984-.747 1.688a2.46 2.46 0 0 1-1.765.703m17.426 35.895q-2.552-.001-4.391-.66-1.84-.646-3.062-1.707-1.214-1.046-1.926-2.246l2.812-1.969c.317.418.719.899 1.207 1.434q.734.823 2 1.426c.86.406 1.98.613 3.364.613q2.777.004 4.59-1.34c1.206-.898 1.808-2.3 1.812-4.215l.004-4.664h-.301a18 18 0 0 1-1.105 1.551q-.705.914-2.036 1.629-1.314.704-3.554.7-2.784-.001-4.992-1.321c-1.465-.88-2.625-2.153-3.48-3.828q-1.268-2.515-1.263-6.102c0-2.351.418-4.402 1.246-6.144q1.243-2.632 3.454-4.063c1.476-.965 3.18-1.45 5.113-1.445 1.492 0 2.68.25 3.555.75.886.488 1.566 1.047 2.03 1.676q.72.925 1.106 1.527h.36l.004-3.648 3.406.003-.02 23.621q-.005 2.96-1.351 4.813-1.33 1.868-3.59 2.734-2.238.88-4.992.875m-.106-12.617c1.414 0 2.61-.32 3.586-.969.977-.648 1.723-1.578 2.23-2.793q.761-1.822.766-4.367c0-1.652-.246-3.113-.746-4.379q-.743-1.897-2.207-2.976-1.465-1.08-3.617-1.082-2.239.001-3.734 1.133-1.482 1.136-2.23 3.046-.735 1.916-.735 4.247-.004 2.394.742 4.234.762 1.822 2.238 2.871 1.493 1.033 3.707 1.035m26.117 4.031q-3.315-.003-5.722-1.472c-1.594-.989-2.82-2.364-3.688-4.13q-1.282-2.662-1.281-6.19.005-3.528 1.293-6.22c.867-1.8 2.074-3.206 3.621-4.21q2.331-1.525 5.441-1.52 1.793 0 3.54.598 1.747.602 3.183 1.95 1.43 1.33 2.281 3.526.85 2.204.848 5.415v1.496l-17.695-.016.004-3.05 14.105.01q.006-1.938-.773-3.468a5.9 5.9 0 0 0-2.18-2.41c-.934-.586-2.043-.883-3.316-.883q-2.11 0-3.649 1.043a6.9 6.9 0 0 0-2.348 2.688 7.9 7.9 0 0 0-.824 3.558l-.004 2.035q-.001 2.602.895 4.41.907 1.795 2.523 2.739c1.075.617 2.325.93 3.75.93q1.389 0 2.508-.387a5.4 5.4 0 0 0 1.961-1.195q.822-.805 1.273-2l3.407.96a7.6 7.6 0 0 1-1.813 3.047q-1.27 1.3-3.14 2.032-1.869.714-4.2.714m18.41-14.277-.011 13.813-3.528-.004.02-22.965 3.406.004-.004 3.59h.301a6.54 6.54 0 0 1 2.453-2.809c1.098-.719 2.512-1.074 4.246-1.074 1.555.004 2.91.324 4.078.96q1.746.944 2.72 2.876c.644 1.273.968 2.89.964 4.843l-.012 14.59H414.5l.012-14.355c0-1.805-.465-3.207-1.399-4.215-.937-1.02-2.222-1.527-3.855-1.531-1.13 0-2.133.242-3.02.73q-1.317.733-2.078 2.137-.767 1.406-.765 3.41m30.403 14.316q-3.227-.002-5.559-1.527-2.33-1.53-3.582-4.207-1.255-2.672-1.25-6.113 0-3.498 1.29-6.176 1.303-2.69 3.62-4.195 2.332-1.525 5.442-1.52 2.42.001 4.36.899 1.943.9 3.183 2.515c.824 1.078 1.336 2.332 1.535 3.77l-3.527-.004c-.266-1.047-.864-1.977-1.79-2.781q-1.376-1.23-3.703-1.23c-1.378 0-2.582.355-3.62 1.073-1.024.707-1.829 1.707-2.407 3q-.855 1.93-.855 4.532-.006 2.66.832 4.636c.566 1.317 1.363 2.336 2.386 3.067 1.036.726 2.254 1.094 3.649 1.094q1.372.002 2.492-.477a5.1 5.1 0 0 0 1.902-1.375 5.3 5.3 0 0 0 1.106-2.152l3.527.004a8.2 8.2 0 0 1-1.48 3.664q-1.169 1.611-3.098 2.566c-1.273.629-2.762.941-4.453.938m23.805.024c-2.211-.004-4.118-.492-5.723-1.473-1.594-.988-2.82-2.363-3.688-4.129q-1.281-2.659-1.28-6.191c.003-2.352.433-4.422 1.292-6.219.867-1.8 2.074-3.207 3.621-4.21q2.331-1.525 5.442-1.52 1.793-.001 3.539.601 1.747.598 3.183 1.946 1.43 1.329 2.282 3.53.848 2.2.847 5.411l-.004 1.496-17.691-.016.004-3.05 14.105.015c.004-1.297-.258-2.453-.773-3.472a5.85 5.85 0 0 0-2.18-2.407q-1.406-.886-3.316-.886-2.109 0-3.649 1.043a6.9 6.9 0 0 0-2.347 2.691 7.86 7.86 0 0 0-.825 3.555l-.003 2.035q-.002 2.6.894 4.41.907 1.798 2.523 2.738 1.613.93 3.75.93 1.388.006 2.512-.387a5.34 5.34 0 0 0 1.957-1.191q.825-.81 1.274-2.004l3.406.961a7.54 7.54 0 0 1-1.813 3.047q-1.27 1.3-3.14 2.031c-1.242.477-2.645.715-4.2.715m0 0"
      style="stroke:none;fill-rule:nonzero;fill:#f2f2f2;fill-opacity:1"/>
  </g>
</svg>
