<svg width="26" height="27" viewBox="0 0 16 17" fill="none" xmlns="http://www.w3.org/2000/svg">
<g clip-path="url(#clip0_1693_1490)">
<path d="M8 0.625C6.41775 0.625 4.87104 1.09419 3.55544 1.97324C2.23985 2.85229 1.21447 4.10172 0.608967 5.56353C0.00346629 7.02534 -0.15496 8.63387 0.153721 10.1857C0.462403 11.7376 1.22433 13.163 2.34315 14.2819C3.46197 15.4007 4.88743 16.1626 6.43928 16.4713C7.99113 16.78 9.59966 16.6215 11.0615 16.016C12.5233 15.4105 13.7727 14.3852 14.6518 13.0696C15.5308 11.754 16 10.2073 16 8.625C15.9977 6.50397 15.1541 4.47047 13.6543 2.97068C12.1545 1.47089 10.121 0.627294 8 0.625ZM8 15.2917C6.68146 15.2917 5.39253 14.9007 4.2962 14.1681C3.19987 13.4356 2.34539 12.3944 1.84081 11.1762C1.33622 9.95805 1.2042 8.61761 1.46144 7.3244C1.71867 6.03119 2.35361 4.84331 3.28596 3.91096C4.21831 2.97861 5.4062 2.34367 6.6994 2.08643C7.99261 1.8292 9.33305 1.96122 10.5512 2.4658C11.7694 2.97039 12.8106 3.82487 13.5431 4.9212C14.2757 6.01753 14.6667 7.30646 14.6667 8.625C14.6647 10.3925 13.9617 12.0871 12.7119 13.3369C11.4621 14.5867 9.76752 15.2897 8 15.2917Z" fill="#57A5EB"/>
<path d="M8.00002 7.29297H7.33335C7.15654 7.29297 6.98697 7.36321 6.86195 7.48823C6.73693 7.61326 6.66669 7.78282 6.66669 7.95964C6.66669 8.13645 6.73693 8.30602 6.86195 8.43104C6.98697 8.55606 7.15654 8.6263 7.33335 8.6263H8.00002V12.6263C8.00002 12.8031 8.07026 12.9727 8.19528 13.0977C8.32031 13.2227 8.48988 13.293 8.66669 13.293C8.8435 13.293 9.01307 13.2227 9.13809 13.0977C9.26312 12.9727 9.33335 12.8031 9.33335 12.6263V8.6263C9.33335 8.27268 9.19288 7.93354 8.94283 7.68349C8.69278 7.43344 8.35364 7.29297 8.00002 7.29297Z" fill="#57A5EB"/>
<path d="M8 5.95703C8.55228 5.95703 9 5.50932 9 4.95703C9 4.40475 8.55228 3.95703 8 3.95703C7.44772 3.95703 7 4.40475 7 4.95703C7 5.50932 7.44772 5.95703 8 5.95703Z" fill="#57A5EB"/>
</g>
<defs>
<clipPath id="clip0_1693_1490">
<rect width="16" height="16" fill="white" transform="translate(0 0.625)"/>
</clipPath>
</defs>
</svg>
