<?xml version="1.0" encoding="UTF-8"?>
<svg height="512" version="1.1" width="512" xmlns="http://www.w3.org/2000/svg">
  <path
    d="M0 0 C1.30008499 -0.00671722 2.60016998 -0.01343445 3.93965149 -0.02035522 C7.4915342 -0.03795335 11.04332041 -0.04270803 14.5952425 -0.0439868 C16.8194026 -0.0454127 19.0435385 -0.04969064 21.26769257 -0.05498123 C29.04159592 -0.07346248 36.81543088 -0.08165442 44.58935547 -0.08007812 C51.81200109 -0.0788779 59.03434732 -0.09996164 66.25691724 -0.13156545 C72.47715053 -0.15780396 78.6972865 -0.16844223 84.91757464 -0.16716731 C88.62408413 -0.1666598 92.33032743 -0.17222439 96.03678131 -0.19352341 C100.17706932 -0.21666759 104.3166959 -0.20733885 108.45703125 -0.1953125 C109.6688356 -0.20655151 110.88063995 -0.21779053 112.12916565 -0.22937012 C132.72343751 -0.07794365 145.14523625 11.83071905 158.84667969 25.61865234 C160.36442815 27.13370137 161.88276956 28.6481566 163.40167236 30.16204834 C166.57168427 33.3261866 169.73440946 36.49738485 172.89208984 39.67382812 C176.92210621 43.72663191 180.96981779 47.76120902 185.02318954 51.79063797 C188.1584453 54.91137831 191.28403635 58.0416592 194.40686798 61.17482758 C195.89495301 62.665564 197.38596823 64.15338184 198.88005829 65.63809967 C213.29734704 79.98472964 222.0286203 92.43900647 222.12571019 113.44484729 C222.12416159 114.18308476 222.12261299 114.92132223 222.12101746 115.68193054 C222.12328301 116.48813695 222.12554857 117.29434336 222.12788278 118.12498027 C222.13417458 120.80607269 222.13339653 123.48711394 222.13256836 126.16821289 C222.1355629 128.09901494 222.13896611 130.02981639 222.14274597 131.96061707 C222.15156108 137.19225752 222.15392306 142.42388162 222.15456176 147.65552878 C222.15527378 150.92881486 222.157411 154.2020968 222.16005898 157.47538185 C222.16930481 168.90847664 222.1733949 180.3415598 222.17260742 191.7746582 C222.17200713 202.40938073 222.18255135 213.04405246 222.19835109 223.67876214 C222.21145538 232.82724866 222.21679009 241.97571864 222.21615201 251.12421447 C222.21589784 256.58008316 222.21870446 262.03590669 222.22933006 267.49176598 C222.23905953 272.62753511 222.23905716 277.76321637 222.23181343 282.89898872 C222.23077353 284.77539067 222.23309481 286.65179823 222.23917389 288.52819061 C222.29858385 308.14935535 221.16772309 324.74786601 206.88574219 339.45458984 C197.76179049 348.06269974 187.40535512 352.61120087 174.78535461 352.55795288 C173.98746417 352.56248399 173.18957372 352.56701511 172.36750478 352.57168353 C169.70856643 352.58428803 167.04983395 352.58270971 164.39086914 352.58105469 C162.47829425 352.58704249 160.56572178 352.59384862 158.65315247 352.60140991 C153.46696327 352.61905358 148.28084011 352.62376467 143.0946238 352.62504148 C139.85065989 352.62646481 136.60671267 352.63073791 133.36275291 352.63603592 C122.03454908 352.65453231 110.70639226 352.66270721 99.37817383 352.66113281 C88.837114 352.65993222 78.2962592 352.6810195 67.75525123 352.71262014 C58.6908689 352.73882063 49.62655337 352.74949849 40.56213349 352.74822199 C35.15485211 352.74771338 29.74775291 352.75334071 24.34050941 352.77457809 C19.25063438 352.79402348 14.16111409 352.79404193 9.07122612 352.77954483 C7.21052656 352.77746329 5.34980444 352.78211827 3.48914337 352.79426575 C-13.5511436 352.89824627 -26.06508311 349.89813326 -38.82519531 337.85302734 C-48.19831771 327.90783644 -51.63527219 315.94366209 -51.52735901 302.46365356 C-51.53430454 301.33621794 -51.54125007 300.20878231 -51.54840606 299.04718196 C-51.5665727 295.30273252 -51.55644013 291.55892407 -51.54614258 287.81445312 C-51.55320629 285.1162014 -51.56181763 282.41799384 -51.57225037 279.71975708 C-51.59380929 273.17139046 -51.59378433 266.62319817 -51.58562482 260.07480778 C-51.57930539 254.74815679 -51.5804796 249.42155634 -51.5868969 244.09490585 C-51.58779855 243.33457415 -51.58870021 242.57424245 -51.58962918 241.79087039 C-51.59148053 240.24587702 -51.5933431 238.70088367 -51.59521674 237.15589033 C-51.61176722 222.69216752 -51.60309978 208.22854247 -51.58623116 193.76482557 C-51.57153953 180.55738066 -51.58615987 167.35016337 -51.61500133 154.14274777 C-51.64445524 140.55274637 -51.65535 126.96284978 -51.64581913 113.37281787 C-51.64479667 111.83313872 -51.64380205 110.29345955 -51.64283562 108.75378036 C-51.64235923 107.99639575 -51.64188284 107.23901114 -51.64139201 106.45867548 C-51.63923563 101.14508945 -51.64899052 95.83160355 -51.66360664 90.5180397 C-51.68119827 84.03276813 -51.6809156 77.54778642 -51.65825499 71.06252588 C-51.64717357 67.75931843 -51.64655369 64.45672098 -51.66255569 61.15351868 C-51.7477949 42.03895367 -50.86743976 27.43225816 -36.91503906 13.14208984 C-25.93460039 2.72326091 -14.71992686 -0.01093673 0 0 Z M-14.95019531 38.04052734 C-19.21077507 44.75416818 -19.30355228 51.05305869 -19.27339172 58.79049683 C-19.27721727 59.83551711 -19.28104282 60.8805374 -19.28498429 61.95722497 C-19.29528753 65.45232903 -19.29132717 68.94726799 -19.28735352 72.44238281 C-19.29170146 74.95094962 -19.29688489 77.45951511 -19.30284119 79.96807861 C-19.31484299 86.07091388 -19.31738364 92.17368846 -19.31504092 98.27653323 C-19.31325597 103.23863216 -19.3150112 108.20071776 -19.31926537 113.16281509 C-19.31986055 113.86976064 -19.32045574 114.57670618 -19.32106897 115.30507431 C-19.32228075 116.74136399 -19.32349489 118.17765367 -19.32471135 119.61394335 C-19.3355815 133.07599059 -19.33342691 146.53801276 -19.3273265 160.00006141 C-19.32215816 172.30583428 -19.33341152 184.61152798 -19.35242472 196.91728519 C-19.37181366 209.56352652 -19.38005725 222.20973042 -19.37630147 234.85598671 C-19.37439098 241.95160346 -19.37686208 249.04715282 -19.39101601 256.14275742 C-19.40419278 262.81584425 -19.40165546 269.48874712 -19.38860512 276.16184235 C-19.38623856 278.60915556 -19.38897683 281.05647991 -19.39722824 283.50378036 C-19.40769031 286.84823421 -19.39959876 290.19215574 -19.38691711 293.53659058 C-19.3942914 294.50168293 -19.40166568 295.46677528 -19.40926343 296.46111286 C-19.35861466 302.82407407 -18.87276349 309.72233132 -14.73778993 314.88108814 C-9.24953622 319.89252538 -2.68627418 320.539776 4.45016479 320.55122375 C5.16850089 320.5550493 5.88683699 320.55887485 6.62694085 320.56281632 C9.01650663 320.57307517 11.40582893 320.56916783 13.79541016 320.56518555 C15.51581035 320.56953598 17.23620861 320.57472024 18.956604 320.58067322 C23.61782407 320.59403916 28.27896293 320.59464454 32.94019842 320.59210992 C36.83670263 320.59103852 40.73319053 320.59592792 44.62969124 320.60071534 C53.82524283 320.61180233 63.02075356 320.61225255 72.21630859 320.60620117 C81.69062652 320.60016203 91.16479592 320.61247274 100.63908851 320.63377124 C108.78453544 320.65140658 116.92993517 320.65738553 125.07540047 320.6541335 C129.93537761 320.6523235 134.7952488 320.6549285 139.65520859 320.66884804 C144.2271289 320.68145313 148.79881827 320.67945695 153.37073517 320.66643715 C155.04402114 320.66407761 156.7173235 320.66678364 158.39059067 320.67506027 C171.70870275 321.18218409 171.70870275 321.18218409 183.55320549 316.01561451 C188.79225884 310.38127149 189.28563539 303.39846524 189.2480011 296.06166077 C189.25182665 295.26094806 189.25565219 294.46023535 189.25959367 293.63525862 C189.26986702 290.96697631 189.26594235 288.29891146 189.26196289 285.63061523 C189.26631248 283.71155092 189.27149645 281.79248835 189.27745056 279.87342834 C189.29082461 274.67097267 189.29142104 269.46858971 189.28888726 264.2661202 C189.28781656 259.91967798 189.2927034 255.57325042 189.29749268 251.22681135 C189.30858216 240.97175303 189.30902828 230.71673134 189.30297852 220.46166992 C189.29693709 209.88875414 189.30925536 199.31597138 189.33054858 188.74307829 C189.34817068 179.65837763 189.35416502 170.57371929 189.35091084 161.48900217 C189.34909897 156.06623525 189.3517248 150.64356326 189.36562538 145.22081184 C189.37820909 140.12114377 189.37625439 135.02168298 189.36321449 129.92201805 C189.36085044 128.0531927 189.36357727 126.18435272 189.37183762 124.31554413 C189.3823212 121.75891595 189.37419174 119.20298124 189.36152649 116.64637756 C189.36890077 115.91182927 189.37627506 115.17728097 189.38387281 114.42047364 C189.31733328 108.00932947 187.87607777 101.56954632 183.2194519 96.88102722 C182.68141434 96.32744537 182.14337677 95.77386353 181.58903503 95.20350647 C181.00616226 94.62918381 180.42328949 94.05486115 179.82275391 93.46313477 C178.89280861 92.51763763 178.89280861 92.51763763 177.94407654 91.55303955 C175.905857 89.48787563 173.84994899 87.44147844 171.79199219 85.39599609 C170.35986614 83.95795617 168.92840878 82.51925002 167.49758911 81.07991028 C164.50140057 78.07186308 161.4961428 75.07325633 158.484375 72.08081055 C154.63572792 68.25504363 150.81246379 64.40500145 146.99589348 60.54726696 C144.04676408 57.5724991 141.08361829 54.6120105 138.11621475 51.65548134 C136.70116025 50.24190851 135.29064954 48.82377125 133.8849144 47.4009304 C131.91350389 45.40944287 129.92372461 43.43825601 127.92822266 41.47094727 C127.35749527 40.88650345 126.78676788 40.30205963 126.19874573 39.6999054 C118.73929104 32.44844178 110.58141587 31.84314392 100.55175781 31.90234375 C98.88898048 31.89445831 98.88898048 31.89445831 97.19261169 31.88641357 C93.55111337 31.87327721 89.91005698 31.88192943 86.26855469 31.89208984 C83.72464922 31.89006729 81.18074431 31.88715434 78.63684082 31.88339233 C73.31430995 31.87897758 67.9919355 31.88508372 62.66943359 31.89941406 C56.5362247 31.91573759 50.40331512 31.91044792 44.27011347 31.89393485 C38.34394524 31.87862438 32.41786911 31.88031621 26.49168396 31.88908005 C23.98156187 31.89107574 21.47143209 31.88864503 18.96131897 31.88164139 C15.44829315 31.87398963 11.93583529 31.88568403 8.42285156 31.90234375 C6.8795945 31.89323471 6.8795945 31.89323471 5.30516052 31.88394165 C-1.90923524 31.94705479 -9.78870346 32.39888501 -14.95019531 38.04052734 Z "
    fill="#0E1626" transform="translate(211.0126953125,47.70947265625)"/>
  <path
    d="M0 0 C3.88446678 2.58964452 6.69907021 5.64814041 8.8125 9.875 C8.90755867 11.29443519 8.94090611 12.71824144 8.94278526 14.14085484 C8.94640961 15.0414861 8.95003396 15.94211736 8.95376813 16.87004048 C8.95269988 17.86583132 8.95163163 18.86162217 8.95053101 19.8875885 C8.95335229 20.94058732 8.95617357 21.99358614 8.95908034 23.07849401 C8.96745768 26.63054304 8.96876728 30.18256102 8.97021484 33.73461914 C8.97488084 36.27200407 8.98002405 38.80938817 8.98561096 41.34677124 C8.99691044 46.82355269 9.0053866 52.3003276 9.01173019 57.77711678 C9.02205059 66.4372422 9.04261393 75.09732917 9.06484985 83.75743103 C9.07233012 86.71991431 9.07974382 89.68239775 9.08713722 92.64488125 C9.08991307 93.75553817 9.08991307 93.75553817 9.092745 94.88863261 C9.1136822 103.3218288 9.13250421 111.75502925 9.15039062 120.18823242 C9.15202881 120.95930985 9.15366699 121.73038728 9.15535481 122.52483069 C9.18161608 135.00871302 9.20027168 147.4925983 9.21698253 159.97649653 C9.23441738 172.79436868 9.26327981 185.61218294 9.3018719 198.43000883 C9.32524627 206.33475174 9.33926416 214.23940023 9.34119953 222.14417797 C9.34356278 228.20806273 9.36145874 234.27180032 9.38506889 240.33564377 C9.39226221 242.82003138 9.39436271 245.30443982 9.39096642 247.78883553 C9.38706695 251.18393537 9.40154273 254.57848782 9.42050171 257.973526 C9.41497201 258.9537018 9.40944232 259.93387759 9.40374506 260.94375569 C9.47146639 267.98326521 10.12190142 274.96018487 15.0625 280.3125 C20.63829119 283.48056317 26.21127709 284.16961 32.52333069 284.1265564 C33.2682848 284.12952654 34.01323891 284.13249667 34.78076738 284.13555682 C37.26025611 284.14315457 39.73950498 284.13672035 42.21899414 284.13037109 C44.00337382 284.13312291 45.78775227 284.13680396 47.5721283 284.14134216 C51.40639464 284.14943774 55.24060273 284.1516268 59.07487679 284.14939499 C65.13862481 284.14655742 71.20225677 284.16092951 77.26597595 284.17837524 C94.50583161 284.2253628 111.74567883 284.24934948 128.9855957 284.25585938 C138.51334778 284.25960892 148.04096799 284.27762672 157.56866354 284.31095374 C163.59591273 284.33117421 169.62282199 284.33353526 175.65009129 284.32267356 C179.39909234 284.32006729 183.14789518 284.33406576 186.89684486 284.35275459 C188.63427254 284.35807854 190.37173668 284.35657631 192.10914993 284.34771919 C194.48279172 284.33659498 196.85509293 284.35003136 199.22865295 284.36947632 C199.91455366 284.36035166 200.60045436 284.351227 201.30713993 284.34182584 C206.23591558 284.42029043 208.99197754 285.83987121 212.8125 288.875 C216.44083663 292.69430172 217.12250458 295.75779006 217.3125 300.875 C217.12250458 305.99220994 216.44083663 309.05569828 212.8125 312.875 C208.19940819 316.56937926 204.65409349 317.4543206 198.88265991 317.38293457 C198.1019581 317.38917453 197.32125629 317.3954145 196.51689684 317.40184355 C193.90987994 317.41775403 191.30380061 317.40517702 188.69677734 317.39257812 C186.82375545 317.39800038 184.95073783 317.40512363 183.07772827 317.41381836 C177.99468891 317.43204979 172.91197444 317.42498286 167.82892942 317.41230202 C162.50139214 317.40216448 157.17388239 317.41157063 151.84634399 317.41784668 C142.89344299 317.42512467 133.94067393 317.41553533 124.98779297 317.39648438 C114.65747342 317.37475526 104.32747017 317.38173761 93.99715841 317.40379 C85.11536731 317.42198732 76.23367105 317.42447998 67.35186732 317.41403532 C62.05302101 317.40781904 56.75432291 317.40691244 51.4554863 317.42018127 C46.46654477 317.43180082 41.47800727 317.42360316 36.48910904 317.40060425 C34.66551125 317.39534789 32.84187904 317.39677777 31.01829529 317.40565491 C14.10963256 317.48032725 1.65123316 314.37982785 -11 302.4375 C-20.30527334 292.56429918 -23.81630845 280.64863337 -23.68870544 267.25331116 C-23.69423984 266.1481103 -23.69977424 265.04290945 -23.70547634 263.90421766 C-23.7189881 260.2354704 -23.70416496 256.56741466 -23.68920898 252.89868164 C-23.69299545 250.25479284 -23.69834642 247.61094886 -23.70558167 244.96707153 C-23.7194558 238.55405513 -23.71200293 232.14123672 -23.69690608 225.72822989 C-23.67998728 218.25523805 -23.6832633 210.78229471 -23.68700016 203.30928963 C-23.69286731 189.97788171 -23.67874841 176.64656851 -23.65405273 163.31518555 C-23.6301015 150.38415992 -23.62306304 137.45326063 -23.63354492 124.5222168 C-23.6449526 110.42387932 -23.64688867 96.32560015 -23.63244683 82.22726339 C-23.63092103 80.72453686 -23.62940067 79.22181033 -23.62788582 77.71908379 C-23.627128 76.97978154 -23.62637019 76.24047929 -23.62558941 75.47877394 C-23.62084807 70.27069727 -23.62269671 65.06264666 -23.62695122 59.85457039 C-23.6323899 52.85064549 -23.6216442 45.84689885 -23.59999657 38.84300613 C-23.59442181 36.26984816 -23.59396967 33.69667337 -23.59894943 31.12351418 C-23.60488396 27.6180812 -23.59243191 24.11318764 -23.57518005 20.60780334 C-23.5811901 19.5838879 -23.58720014 18.55997245 -23.59339231 17.50502926 C-23.53957044 11.51323395 -23.00209225 7.77754826 -18.6875 3.328125 C-12.77328692 -1.41556674 -7.16045286 -2.52721866 0 0 Z "
    fill="#0E1626" transform="translate(119.1875,147.125)"/>
</svg>
