<svg width="256" height="46" viewBox="0 0 256 46" fill="none" xmlns="http://www.w3.org/2000/svg">
<g clip-path="url(#clip0_2763_610)">
<path d="M53.7819 13.6875C48.0272 13.6875 44.6191 17.0506 44.6191 22.2188C44.6191 27.3869 48.0272 30.75 53.7819 30.75C59.6833 30.75 63.0431 27.3869 63.0431 22.2188C63.0431 17.0506 59.6842 13.6875 53.7819 13.6875ZM53.7819 26.2987C50.4231 26.2987 49.5585 25.5109 49.5585 22.2188C49.5585 18.9266 50.4231 18.1388 53.7819 18.1388C57.1408 18.1388 58.1037 18.9266 58.1037 22.2188C58.1037 25.5109 57.1408 26.2987 53.7819 26.2987ZM79.0003 26.348C78.3836 25.0875 77.8397 24.2711 76.1362 23.8259V23.5807C79.2973 23.1868 80.6064 21.6269 80.6064 19.0064C80.6064 15.7664 78.3088 13.9367 73.9379 13.9367H64.2814V30.5028H68.9247V24.8609H70.8259C72.6288 24.8609 73.1225 25.2066 73.7156 26.4435L75.6916 30.4989H81.051L79.0003 26.348ZM73.8858 21.4024H68.9247V18.1141H73.8887C75.247 18.1141 75.7408 18.4352 75.7408 19.7459C75.7408 21.1552 75.247 21.4024 73.8887 21.4024H73.8858ZM81.7876 13.9347V30.5028H86.431V13.9347H81.7876ZM96.8301 13.6875C91.0753 13.6875 87.6673 17.0506 87.6673 22.2188C87.6673 27.3869 91.0753 30.75 96.8301 30.75C102.731 30.75 106.091 27.3869 106.091 22.2188C106.091 17.0506 102.735 13.6875 96.8331 13.6875H96.8301ZM96.8301 26.2987C93.4713 26.2987 92.6067 25.5109 92.6067 22.2188C92.6067 18.9266 93.4713 18.1388 96.8301 18.1388C100.189 18.1388 101.152 18.9266 101.152 22.2188C101.152 25.5109 100.192 26.2987 96.8331 26.2987H96.8301ZM119.381 13.9347V20.3358L119.603 23.9461H119.283L116.862 20.1379L112.269 13.9337H107.33V30.5028H111.972V24.0239L111.775 20.8588H112.097L114.196 24.1224L119.086 30.5028H124.025V13.9347H119.381Z" fill="#172235"/>
<path fill-rule="evenodd" clip-rule="evenodd" d="M43.5722 29.2779C43.5683 29.2743 43.5648 29.2703 43.5619 29.266C43.4823 29.1696 43.4093 29.0825 43.3204 28.9907C42.5044 28.1153 41.6435 26.7342 41.2767 25.7082C40.952 24.8025 40.5945 22.8635 40.5964 22.0165C40.5964 21.153 41.0418 19.1479 41.4442 18.1825C41.8559 17.1933 42.86 15.6782 43.516 15.056C43.5712 15.0028 43.6255 14.9478 43.6742 14.8909C43.4365 14.2179 43.1663 13.5584 42.8638 12.9124C42.7122 13.0546 42.525 13.2446 42.3248 13.4566L42.3126 13.4703C41.8392 13.9706 41.3922 14.4944 40.9735 15.0395C40.9667 15.0462 40.9608 15.0536 40.9557 15.0615C40.9127 15.1194 40.8734 15.1735 40.8387 15.2231C40.0522 16.395 39.458 17.6807 39.0776 19.0332C38.5349 21.0621 38.6303 24.0142 39.3031 26.0322C39.9282 27.9033 41.6613 30.4626 42.8975 31.3463C43.1894 30.7187 43.4508 30.0763 43.6816 29.4192C43.647 29.3706 43.6105 29.3247 43.5722 29.2779ZM40.719 34.4352C40.1201 33.9497 39.5647 33.4149 39.0589 32.8366C38.0464 31.7024 37.0938 30.3452 36.507 29.154C36.3461 28.8249 36.197 28.4924 36.0597 28.1565C35.6825 27.2364 35.3924 26.2841 35.1932 25.3118C35.1763 25.22 35.1586 25.1356 35.1426 25.0484C35.1267 24.9613 35.1071 24.8502 35.0912 24.7511C35.0753 24.652 35.064 24.5758 35.05 24.4877C35.0341 24.3841 35.0191 24.2804 35.007 24.1757C34.9948 24.0711 34.9817 23.9674 34.9705 23.8628C34.963 23.7903 34.9555 23.7169 34.9489 23.6435C34.5528 19.6298 35.7154 15.6174 38.2045 12.4077L38.2756 12.3159C38.4029 12.1553 38.532 11.9956 38.6668 11.8387C39.246 11.1624 40.471 9.97955 40.9576 9.61524C40.5833 9.08361 40.1893 8.56972 39.7757 8.07357C39.4575 8.33235 38.9681 8.77099 38.4497 9.26653C38.3936 9.31975 38.3383 9.37389 38.2831 9.42895C38.2466 9.46382 38.2101 9.50053 38.1727 9.53724C37.4601 10.2422 36.8058 11.0017 36.216 11.8084C36.1748 11.8653 36.1327 11.9222 36.0925 11.98C36.0784 12.0002 36.0653 12.0177 36.0522 12.0379C36.0082 12.1003 35.9643 12.1636 35.9212 12.2287C35.8782 12.2939 35.8361 12.3554 35.7921 12.4205C35.7481 12.4857 35.7088 12.5462 35.6695 12.6096C35.6302 12.6729 35.5853 12.7399 35.5441 12.8059L35.3991 13.0418C35.327 13.1629 35.2549 13.285 35.1857 13.4088L35.0566 13.6392C34.963 13.8126 34.8694 13.987 34.7758 14.1622C34.7328 14.254 34.6897 14.3375 34.6476 14.4247C34.0005 15.7795 33.5253 17.207 33.2327 18.6753C32.8484 20.5544 32.7805 22.4825 33.0315 24.3831C33.2641 26.1464 33.7591 27.8666 34.5007 29.489C34.9454 30.4648 35.4719 31.4028 36.0747 32.2934C36.1683 32.4356 36.2974 32.6035 36.449 32.7898C37.2935 33.8109 38.1997 34.7814 39.1628 35.696C39.4033 35.9218 39.6175 36.1108 39.7841 36.2421C40.209 35.7349 40.6085 35.2106 40.9829 34.6692C40.9061 34.5958 40.8153 34.5113 40.719 34.4352ZM23.5408 0C23.3415 0.236756 23.0524 0.613914 22.8446 0.909401C22.6998 1.12843 22.5271 1.32855 22.3309 1.50496C22.3113 1.5227 22.287 1.5345 22.2607 1.53892C22.1849 1.53892 21.7638 1.05898 21.3249 0.480854C21.1799 0.28998 21.0638 0.132143 20.9665 0.00275298C20.1998 0.0468006 19.4443 0.126943 18.7001 0.24318C19.2175 0.945189 20.2666 2.30791 21.1041 3.37148C21.7535 4.19737 22.2738 4.83974 22.3206 4.85717C22.3674 4.87461 22.4909 4.74705 22.6397 4.55526C22.694 4.48552 22.7501 4.40844 22.8053 4.32401C22.956 4.09827 23.1431 3.82939 23.35 3.5385C24.0986 2.49879 25.1045 1.18745 25.6417 0.571702C25.7399 0.459747 25.8288 0.351464 25.9121 0.251439C25.1268 0.126367 24.3353 0.0424351 23.5408 0ZM24.6226 42.495L24.5543 42.4032L24.0808 41.7939C23.8843 41.5388 23.7168 41.3231 23.5717 41.1396C23.5614 41.1249 23.5493 41.1111 23.5399 41.0974C23.189 40.6477 22.9784 40.3816 22.7913 40.1559C22.6556 39.9907 22.5358 39.8466 22.387 39.6686L22.2813 39.5511L22.1026 39.3391L21.7357 39.8595L21.543 40.1348C21.3633 40.388 21.1986 40.6211 21.0442 40.8368L20.799 41.1809C20.7167 41.2947 20.6362 41.4011 20.5641 41.5048C20.5614 41.5067 20.5592 41.5093 20.5576 41.5122C20.2301 41.9627 19.9634 42.3215 19.7304 42.6216L19.6181 42.7629L19.6134 42.7694C19.3738 43.0731 19.1661 43.32 18.9583 43.5429C18.7712 43.7494 18.6224 43.9174 18.5129 44.0532C19.2972 44.1818 20.0877 44.2703 20.8814 44.3184C21.0517 44.1348 21.2491 43.8816 21.5102 43.5356C21.5813 43.4438 21.6506 43.3521 21.7161 43.2695C21.9678 42.9529 22.1709 42.7235 22.2064 42.7189C22.242 42.7143 22.4217 42.9153 22.664 43.208C22.7155 43.2686 22.7698 43.3365 22.8287 43.4053C22.8316 43.4081 22.8339 43.4116 22.8353 43.4154C22.9092 43.5072 22.9878 43.6063 23.0673 43.709C23.2442 43.9348 23.4183 44.1468 23.5689 44.3211C24.3239 44.2802 25.0763 44.2018 25.8232 44.0862C25.5528 43.71 25.1176 43.13 24.6226 42.495ZM30.1334 1.33703L29.7591 1.71602C28.1514 3.3568 26.6074 5.394 25.3469 7.49728C24.981 8.10752 24.6385 8.72511 24.326 9.33902C24.311 9.36747 24.297 9.39683 24.2839 9.42436C24.2155 9.55834 24.15 9.68865 24.0845 9.82171C23.8749 10.2558 23.6784 10.6898 23.4997 11.1165C23.3425 11.4919 23.1534 11.8167 23.0786 11.836C23.0486 11.8451 22.9934 11.8112 22.8764 11.6901L22.8671 11.68C22.5864 11.3927 21.9865 10.6393 20.6128 8.87193L20.4088 8.6104L20.3798 8.57278L19.1998 7.04396C18.8928 6.64814 18.5613 6.21837 18.205 5.75464C16.1585 3.09985 15.204 1.82247 14.6313 1.26729C14.0168 1.48386 13.4148 1.72551 12.8252 1.99224C13.4241 2.8062 14.9167 4.73788 17.5537 8.1167L17.6258 8.20846C17.8794 8.5324 18.1274 8.85083 18.3604 9.1509C19.0987 10.1025 19.692 10.8752 19.8071 11.0339C19.8193 11.0523 19.8342 11.0716 19.8483 11.0927C20.1468 11.5019 20.9282 12.5013 21.7198 13.5015C21.9397 13.7768 22.1634 14.0622 22.3749 14.3274C23.1338 15.2809 23.7692 16.0627 23.8066 16.0774C23.8122 16.0774 23.8244 16.0655 23.8394 16.0352C23.9526 15.8379 24.2773 14.9523 24.6292 13.886C24.6296 13.8836 24.6296 13.8811 24.6292 13.8787C24.7452 13.5269 24.8678 13.1785 24.9969 12.8335C25.0905 12.571 25.1953 12.3095 25.3011 12.0516C25.3207 12.0048 25.3385 11.9599 25.3591 11.9085C25.6361 11.2355 25.9374 10.5782 26.263 9.93642C27.5954 7.27186 29.3719 4.84404 31.5193 2.75298L31.5708 2.70251C31.771 2.50613 31.9544 2.31709 32.0986 2.15834C31.4597 1.85367 30.8047 1.5799 30.1334 1.33703ZM30.9139 41.2947L30.9045 41.2809C30.3973 40.6119 29.6412 39.6374 28.536 38.2159L28.3751 38.0104L26.7431 35.9108L25.6632 34.5214L25.5425 34.3627C24.5234 33.0486 23.6803 31.9593 23.0009 31.0793L22.4993 30.4259C22.3215 30.1959 22.1587 29.9833 22.0108 29.7881C21.9968 29.7689 21.98 29.7505 21.9659 29.7303C21.9379 29.6927 21.9098 29.656 21.8808 29.6193C21.5439 29.1825 21.2351 28.7934 21.0142 28.5254C20.8205 28.2933 20.6942 28.152 20.6717 28.151C20.6493 28.1501 20.6193 28.2272 20.5641 28.363C20.421 28.7053 20.1646 29.4257 19.8932 30.2562C19.8642 30.3433 19.8361 30.4314 19.8062 30.5168C19.4714 31.5158 19.0812 32.4961 18.6374 33.4533C18.5747 33.5928 18.5092 33.7286 18.4427 33.8671C18.2556 34.2599 18.0572 34.6462 17.8476 35.0261C17.4695 35.726 17.064 36.406 16.6311 37.0661C15.8303 38.2806 14.9336 39.4315 13.9491 40.5082C13.9459 40.513 13.9421 40.5173 13.9379 40.5211C13.7333 40.745 13.5243 40.9662 13.3109 41.1846C12.9534 41.5516 12.6306 41.893 12.4097 42.1353C13.023 42.4289 13.6506 42.6944 14.2925 42.9318L14.8166 42.4041C15.5246 41.6979 16.1902 40.9518 16.8098 40.1696C16.8183 40.1606 16.8258 40.1508 16.8322 40.1403C17.3095 39.5346 17.7821 38.8776 18.2893 38.1214C18.57 37.7057 18.8573 37.257 19.1651 36.7697C19.2082 36.7018 19.2587 36.622 19.3083 36.5329C19.3448 36.4669 19.3851 36.3971 19.4262 36.3219C19.4331 36.3107 19.439 36.2991 19.444 36.287C19.9606 35.3464 20.7242 33.7506 21.0404 32.922C21.1044 32.737 21.1895 32.5597 21.294 32.3934C21.3315 32.3402 21.3633 32.3117 21.3876 32.3191C21.4827 32.3968 21.5679 32.4855 21.6412 32.5833C21.6618 32.61 21.6861 32.6384 21.7114 32.6678C21.8901 32.8816 22.1447 33.1945 22.4815 33.6194C22.5751 33.735 22.6687 33.858 22.7773 33.9919C23.2882 34.6389 23.9498 35.4877 24.7836 36.5614C24.8481 36.6431 24.9127 36.7266 24.9791 36.8119C25.0297 36.878 25.0821 36.9459 25.1364 37.0147C25.5362 37.5304 25.9729 38.0939 26.4464 38.705C26.5017 38.7775 26.5587 38.8491 26.6121 38.9207C28.5941 41.4901 29.4531 42.5987 29.8461 43.0869C30.4769 42.8679 31.0938 42.6231 31.6971 42.3527C31.5483 42.1426 31.306 41.8104 30.9139 41.2947ZM11.3823 19.9013C11.3458 19.5214 11.298 19.1782 11.24 18.8873C11.1399 18.3871 11.0164 17.887 10.8657 17.3906C10.6589 16.6931 10.4127 16.0075 10.1283 15.3368C8.94736 12.5462 7.10762 10.019 4.96655 8.34061C4.87297 8.26995 4.79624 8.20846 4.72418 8.15708C4.31369 8.65322 3.92472 9.16497 3.55727 9.69232L3.59189 9.72444C3.59189 9.72444 3.59844 9.72994 3.60125 9.73453L3.87543 9.98872C4.40415 10.4797 4.84771 10.9064 5.23325 11.3092C5.23573 11.3114 5.23793 11.3139 5.2398 11.3166C6.17572 12.2618 6.96292 13.3384 7.57551 14.511C7.85624 15.0303 8.10703 15.5378 8.32413 16.0416C8.49195 16.4276 8.63949 16.8127 8.76675 17.1969C9.28705 18.7441 9.51538 20.3115 9.51538 22.1284C9.51538 23.0461 9.4218 24.3308 9.3067 24.9732C8.96327 26.9003 8.07802 29.0852 6.94292 30.8407C6.8325 31.0123 6.71833 31.1812 6.60136 31.3445C6.48439 31.5078 6.32063 31.7116 6.13347 31.9391C6.1306 31.9436 6.12714 31.9476 6.12318 31.9511C5.41666 32.7935 4.32461 33.9222 3.69015 34.4425C3.634 34.4884 3.57785 34.5343 3.52451 34.5838C3.88853 35.1115 4.27314 35.6235 4.68488 36.1172C5.2972 35.6626 5.86971 35.1586 6.39642 34.6105C7.42666 33.5538 8.32164 32.3778 9.06153 31.1087C9.13452 30.9866 9.20376 30.8627 9.27114 30.7416C9.36472 30.5737 9.45268 30.4057 9.53971 30.2351C9.56965 30.1791 9.59866 30.1213 9.6258 30.0644C9.67165 29.9726 9.71938 29.8854 9.75868 29.7964C10.4355 28.3938 10.9321 26.9142 11.2372 25.3916C11.5058 24.0665 11.5516 21.6256 11.3823 19.9013ZM4.74477 17.3539C4.3522 16.4107 3.83463 15.5224 3.20541 14.7119C2.72952 14.1171 2.20736 13.5593 1.6436 13.0436C1.34602 13.689 1.07995 14.351 0.845377 15.0294L1.17758 15.3791C1.68664 15.9131 2.24998 16.7721 2.70103 17.6512C3.00961 18.2388 3.25667 18.8555 3.43842 19.492C4.08318 21.9587 3.72758 24.7006 2.55785 26.925L2.53727 26.9627C2.16943 27.6593 1.71218 28.307 1.17664 28.8898C1.05593 29.0265 0.940826 29.155 0.837891 29.2733C1.06934 29.9463 1.33229 30.603 1.62675 31.2436L1.66699 31.2078C2.2994 30.6143 2.87976 29.9696 3.40193 29.2807C5.92386 25.8496 6.35899 21.2108 4.74477 17.3539Z" fill="url(#paint0_linear_2763_610)"/>
<path fill-rule="evenodd" clip-rule="evenodd" d="M37.318 38.7556C36.8211 39.1888 36.3045 39.6017 35.7693 39.9899C34.9373 39.2631 32.8777 37.1727 32.3658 36.4973C29.2731 32.4256 29.099 32.1944 21.2385 22.0588C19.1592 19.3774 17.3709 17.064 17.2623 16.9199C16.9535 16.4997 16.9198 16.7135 17.1351 17.722C17.2492 18.2597 17.3662 19.7968 17.4083 21.3321C17.4748 23.6785 17.4476 24.2089 17.1893 25.6763C16.4407 29.9443 14.6974 33.7847 12.1605 36.7708C11.1227 37.9912 9.32879 39.7403 8.84686 40.0239C8.34778 39.6617 7.86367 39.2799 7.39453 38.8786C7.65 38.6033 8.17404 38.083 8.77668 37.5021C13.8505 32.5835 16.2433 25.9396 15.3477 19.26C14.6655 14.1706 12.5067 9.9595 8.68404 6.26408L7.63316 5.24456C8.13224 4.82978 8.64692 4.43641 9.17719 4.06445C10.1541 4.85639 12.1324 7.04501 13.7953 9.22996C14.8864 10.6633 16.6223 12.9189 17.6526 14.2422C18.6828 15.5655 20.4075 17.7917 21.4892 19.1893C22.571 20.5869 24.3153 22.8416 25.3718 24.2016C26.4283 25.5615 27.3781 26.7912 27.482 26.9344C27.8104 27.3859 27.8423 27.0647 27.5859 25.9167C27.3828 25.0128 27.3379 24.2502 27.3482 21.8625C27.3575 19.1095 27.3847 18.8039 27.7749 17.0503C28.2234 14.9339 28.9761 12.8906 30.0105 10.9818C31.3318 8.49583 33.2473 6.06312 35.2209 4.36361L35.4876 4.12961C36.0266 4.50952 36.5478 4.91206 37.0513 5.33725L36.9268 5.44553C33.0293 8.81609 30.5963 12.9887 29.5669 18.0597C29.1233 20.2428 29.1233 23.617 29.5669 25.8056C30.5654 30.7298 33.0153 35.0033 36.6255 38.116C36.8922 38.3491 37.1467 38.584 37.318 38.7556Z" fill="#172235"/>
<path d="M130.108 13.4871L130.094 30.1916L128.071 30.1899L128.086 13.4853L130.108 13.4871ZM135.82 22.66L135.814 30.1966L133.889 30.1949L133.9 17.6665L135.759 17.6682L135.758 19.6257L135.921 19.6259C136.215 18.9899 136.661 18.4792 137.26 18.0936C137.858 17.7026 138.63 17.5075 139.577 17.5084C140.425 17.5091 141.167 17.6838 141.803 18.0323C142.439 18.3755 142.933 18.8979 143.286 19.5997C143.639 20.296 143.815 21.1771 143.814 22.2428L143.807 30.2036L141.882 30.2019L141.889 22.3717C141.89 21.3874 141.635 20.6205 141.124 20.0709C140.613 19.5158 139.912 19.2378 139.02 19.2371C138.406 19.2365 137.857 19.3693 137.373 19.6353C136.894 19.9013 136.516 20.2898 136.238 20.8007C135.96 21.3116 135.821 21.9314 135.82 22.66ZM152.784 17.683L152.783 19.3143L146.29 19.3087L146.291 17.6774L152.784 17.683ZM148.186 14.6774L150.111 14.6791L150.101 26.6202C150.1 27.164 150.179 27.5719 150.336 27.8439C150.499 28.1105 150.706 28.2901 150.956 28.3828C151.211 28.47 151.48 28.5137 151.763 28.514C151.975 28.5142 152.149 28.5034 152.285 28.4818C152.421 28.4547 152.53 28.4331 152.611 28.4168L153.001 30.1464C152.871 30.1952 152.689 30.244 152.455 30.2927C152.221 30.3469 151.925 30.3738 151.566 30.3735C151.022 30.373 150.489 30.2557 149.967 30.0214C149.451 29.7871 149.022 29.4306 148.68 28.9517C148.343 28.4729 148.175 27.8692 148.175 27.1406L148.186 14.6774ZM160.787 30.4794C159.579 30.4784 158.538 30.211 157.663 29.6774C156.794 29.1383 156.123 28.3873 155.651 27.4244C155.184 26.4561 154.951 25.3303 154.952 24.047C154.953 22.7637 155.188 21.6329 155.657 20.6545C156.13 19.6707 156.789 18.9046 157.632 18.3561C158.481 17.8022 159.471 17.5257 160.602 17.5267C161.255 17.5273 161.899 17.6366 162.535 17.8547C163.171 18.0727 163.75 18.4267 164.271 18.9165C164.793 19.4009 165.208 20.0429 165.518 20.8425C165.827 21.6422 165.981 22.6265 165.98 23.7956L165.979 24.6113L156.322 24.6028L156.323 22.9389L164.023 22.9456C164.024 22.2387 163.883 21.6078 163.601 21.0529C163.324 20.4981 162.927 20.06 162.411 19.7387C161.9 19.4174 161.297 19.2565 160.601 19.2559C159.834 19.2552 159.17 19.445 158.61 19.8251C158.055 20.1998 157.628 20.6888 157.328 21.2922C157.028 21.8955 156.878 22.5424 156.878 23.233L156.877 24.3423C156.876 25.2885 157.038 26.0907 157.364 26.7489C157.695 27.4017 158.154 27.8997 158.741 28.2428C159.328 28.5804 160.01 28.7496 160.788 28.7502C161.294 28.7507 161.751 28.6804 162.159 28.5394C162.572 28.3929 162.928 28.1757 163.228 27.8878C163.527 27.5944 163.758 27.2303 163.922 26.7954L165.781 27.3191C165.585 27.9497 165.255 28.504 164.793 28.9821C164.33 29.4548 163.759 29.8241 163.079 30.0899C162.399 30.3503 161.635 30.4802 160.787 30.4794ZM170.842 13.5226L170.827 30.2272L168.903 30.2255L168.917 13.521L170.842 13.5226ZM176.293 13.5274L176.278 30.2319L174.353 30.2303L174.368 13.5257L176.293 13.5274ZM179.804 30.235L179.815 17.7066L181.74 17.7083L181.729 30.2367L179.804 30.235ZM180.795 15.6194C180.42 15.6191 180.097 15.491 179.825 15.2352C179.559 14.9794 179.426 14.672 179.426 14.3132C179.426 13.9543 179.56 13.6472 179.827 13.3918C180.099 13.1365 180.422 13.009 180.798 13.0093C181.173 13.0096 181.493 13.1377 181.76 13.3935C182.031 13.6493 182.167 13.9567 182.167 14.3155C182.166 14.6744 182.03 14.9815 181.758 15.2369C181.491 15.4922 181.17 15.6197 180.795 15.6194ZM190.307 35.2033C189.377 35.2025 188.578 35.0822 187.909 34.8424C187.241 34.608 186.684 34.2975 186.238 33.9111C185.798 33.53 185.448 33.1219 185.187 32.6867L186.721 31.6113C186.895 31.8399 187.115 32.1011 187.381 32.3949C187.647 32.6943 188.012 32.9529 188.474 33.1708C188.941 33.3941 189.553 33.5061 190.308 33.5068C191.32 33.5077 192.155 33.2637 192.813 32.7749C193.472 32.2861 193.801 31.5196 193.802 30.4756L193.804 27.9308L193.641 27.9306C193.5 28.1589 193.298 28.4415 193.037 28.7784C192.781 29.1099 192.411 29.4059 191.927 29.6665C191.448 29.9216 190.801 30.0489 189.985 30.0481C188.974 30.0473 188.066 29.8072 187.262 29.328C186.463 28.8488 185.83 28.1522 185.363 27.2383C184.902 26.3243 184.671 25.2148 184.673 23.9098C184.674 22.6265 184.9 21.5093 185.352 20.5581C185.805 19.6014 186.433 18.8625 187.239 18.3411C188.044 17.8144 188.974 17.5515 190.029 17.5524C190.844 17.5531 191.491 17.6896 191.97 17.9619C192.453 18.2288 192.823 18.5336 193.078 18.8764C193.339 19.2138 193.54 19.4913 193.681 19.7089L193.877 19.7091L193.878 17.7189L195.738 17.7205L195.727 30.6078C195.726 31.6845 195.481 32.5597 194.991 33.2336C194.506 33.9128 193.853 34.4098 193.032 34.7245C192.216 35.0446 191.308 35.2042 190.307 35.2033ZM190.248 28.3192C191.02 28.3199 191.673 28.1437 192.206 27.7907C192.739 27.4377 193.145 26.9297 193.422 26.2665C193.7 25.6034 193.84 24.8096 193.84 23.8852C193.841 22.9825 193.706 22.1858 193.435 21.495C193.163 20.8041 192.762 20.2627 192.229 19.8708C191.696 19.4788 191.039 19.2825 190.256 19.2818C189.44 19.2811 188.76 19.4871 188.216 19.8999C187.677 20.3127 187.272 20.867 186.999 21.5628C186.732 22.2585 186.598 23.0306 186.597 23.8789C186.597 24.7489 186.732 25.5184 187.003 26.1875C187.28 26.8511 187.687 27.3735 188.225 27.7546C188.769 28.1303 189.443 28.3185 190.248 28.3192ZM204.503 30.5176C203.296 30.5165 202.255 30.2492 201.38 29.7155C200.511 29.1764 199.84 28.4254 199.367 27.4626C198.901 26.4942 198.668 25.3684 198.669 24.0851C198.67 22.8019 198.905 21.671 199.373 20.6926C199.847 19.7088 200.506 18.9427 201.349 18.3942C202.198 17.8403 203.188 17.5639 204.319 17.5649C204.971 17.5654 205.616 17.6747 206.252 17.8928C206.888 18.1109 207.467 18.4648 207.988 18.9547C208.51 19.4391 208.925 20.0811 209.234 20.8807C209.544 21.6803 209.698 22.6647 209.697 23.8338L209.696 24.6494L200.039 24.641L200.04 22.9771L207.74 22.9838C207.741 22.2769 207.6 21.646 207.317 21.0911C207.041 20.5362 206.644 20.0981 206.128 19.7769C205.617 19.4556 205.013 19.2946 204.317 19.294C203.551 19.2934 202.887 19.4831 202.327 19.8633C201.772 20.238 201.345 20.727 201.045 21.3303C200.745 21.9336 200.595 22.5806 200.595 23.2712L200.594 24.3805C200.593 25.3266 200.755 26.1288 201.081 26.7871C201.412 27.4399 201.871 27.9378 202.458 28.2809C203.045 28.6186 203.727 28.7877 204.505 28.7884C205.011 28.7888 205.467 28.7185 205.875 28.5775C206.289 28.4311 206.645 28.2139 206.944 27.9259C207.244 27.6326 207.475 27.2684 207.639 26.8336L209.498 27.3572C209.302 27.9878 208.972 28.5422 208.51 29.0203C208.047 29.4929 207.476 29.8622 206.796 30.1281C206.116 30.3885 205.352 30.5183 204.503 30.5176ZM214.551 22.7287L214.544 30.2653L212.619 30.2637L212.63 17.7352L214.49 17.7369L214.488 19.6944L214.651 19.6946C214.946 19.0586 215.392 18.5479 215.99 18.1623C216.589 17.7713 217.361 17.5762 218.307 17.5771C219.156 17.5778 219.898 17.7525 220.534 18.101C221.17 18.4442 221.664 18.9666 222.017 19.6684C222.37 20.3647 222.546 21.2458 222.545 22.3115L222.538 30.2723L220.613 30.2706L220.62 22.4404C220.62 21.4562 220.366 20.6892 219.855 20.1396C219.344 19.5845 218.643 19.3065 217.751 19.3058C217.137 19.3052 216.587 19.438 216.103 19.704C215.625 19.97 215.246 20.3585 214.968 20.8694C214.691 21.3803 214.552 22.0001 214.551 22.7287ZM231.145 30.5408C229.97 30.5398 228.959 30.2616 228.111 29.7062C227.263 29.1508 226.611 28.3863 226.156 27.4125C225.7 26.4388 225.472 25.3266 225.473 24.0759C225.474 22.8035 225.709 21.6808 226.178 20.7079C226.652 19.7295 227.31 18.9661 228.154 18.4176C229.002 17.8637 229.992 17.5873 231.123 17.5883C232.004 17.589 232.798 17.7528 233.505 18.0797C234.211 18.4066 234.79 18.8639 235.241 19.4515C235.692 20.0392 235.971 20.7246 236.079 21.5077L234.154 21.506C234.008 20.9349 233.682 20.429 233.177 19.9881C232.677 19.5417 232.003 19.3182 231.154 19.3175C230.404 19.3168 229.746 19.512 229.18 19.903C228.62 20.2886 228.181 20.8347 227.865 21.5413C227.555 22.2425 227.399 23.0662 227.398 24.0123C227.397 24.9802 227.549 25.8232 227.853 26.5413C228.162 27.2593 228.597 27.817 229.156 28.2145C229.722 28.6119 230.385 28.811 231.146 28.8116C231.646 28.8121 232.101 28.7255 232.509 28.5518C232.916 28.3782 233.262 28.1283 233.545 27.8023C233.828 27.4763 234.03 27.085 234.15 26.6283L236.075 26.63C235.965 27.3694 235.695 28.0353 235.265 28.6276C234.841 29.2145 234.277 29.6817 233.576 30.0291C232.879 30.3711 232.069 30.5416 231.145 30.5408ZM244.138 30.5522C242.931 30.5511 241.89 30.2838 241.015 29.7501C240.145 29.211 239.474 28.46 239.002 27.4971C238.535 26.5288 238.302 25.403 238.304 24.1197C238.305 22.8364 238.539 21.7056 239.008 20.7272C239.482 19.7434 240.14 18.9773 240.984 18.4288C241.833 17.8749 242.822 17.5985 243.954 17.5994C244.606 17.6 245.25 17.7093 245.886 17.9274C246.522 18.1455 247.101 18.4994 247.623 18.9893C248.144 19.4737 248.56 20.1157 248.869 20.9153C249.178 21.7149 249.332 22.6992 249.331 23.8683L249.331 24.684L239.673 24.6756L239.675 23.0116L247.375 23.0184C247.375 22.3115 247.234 21.6806 246.952 21.1257C246.675 20.5708 246.279 20.1327 245.762 19.8114C245.251 19.4902 244.648 19.3292 243.952 19.3286C243.185 19.328 242.522 19.5177 241.961 19.8978C241.406 20.2726 240.979 20.7616 240.679 21.3649C240.38 21.9682 240.23 22.6152 240.229 23.3058L240.228 24.415C240.227 25.3612 240.39 26.1634 240.715 26.8216C241.047 27.4745 241.506 27.9724 242.093 28.3155C242.68 28.6531 243.362 28.8223 244.139 28.823C244.645 28.8234 245.102 28.7531 245.51 28.6121C245.923 28.4657 246.28 28.2485 246.579 27.9605C246.878 27.6671 247.11 27.303 247.273 26.8682L249.133 27.3918C248.936 28.0224 248.607 28.5767 248.144 29.0549C247.682 29.5275 247.11 29.8968 246.43 30.1627C245.75 30.4231 244.986 30.5529 244.138 30.5522Z" fill="#57A5EB"/>
</g>
<defs>
<linearGradient id="paint0_linear_2763_610" x1="22.2598" y1="0" x2="22.2598" y2="44.3211" gradientUnits="userSpaceOnUse">
<stop stop-color="#4EA2F1"/>
<stop offset="0.5" stop-color="#2C7AC5"/>
<stop offset="1" stop-color="#1E6CB7"/>
</linearGradient>
<clipPath id="clip0_2763_610">
<rect width="254.323" height="45.2812" fill="white" transform="translate(0.837891)"/>
</clipPath>
</defs>
</svg>
